<svg width="30" height="30" viewBox="0 0 30 30" fill="none" xmlns="http://www.w3.org/2000/svg">
<path fill-rule="evenodd" clip-rule="evenodd" d="M14.0625 23.75C14.0625 24.2678 14.4822 24.6875 15 24.6875C15.5178 24.6875 15.9375 24.2678 15.9375 23.75L15.9375 8.51336L23.0871 15.663C23.4532 16.0291 24.0468 16.0291 24.4129 15.663C24.779 15.2968 24.779 14.7032 24.4129 14.3371L15.6681 5.59232C15.5919 5.51493 15.5024 5.45071 15.4032 5.4034C15.2811 5.34512 15.1444 5.3125 15 5.3125C14.8556 5.3125 14.7189 5.34512 14.5968 5.4034C14.5246 5.43778 14.4559 5.48192 14.3927 5.53581C14.3716 5.55371 14.3514 5.57252 14.332 5.59219L5.58709 14.3371C5.22097 14.7032 5.22097 15.2968 5.58709 15.6629C5.9532 16.0291 6.5468 16.0291 6.91291 15.6629L14.0625 8.51336L14.0625 23.75Z" fill="#2B2A29"/>
</svg>
