<svg xmlns="http://www.w3.org/2000/svg" width="233px" height="57px" viewBox="0 0 233 57" version="1.1"><g id="Page" stroke="none" stroke-width="1" fill-rule="evenodd"><g id="home-page" transform="translate(-120.000000, -90.000000)"><g id="black_logo" transform="translate(120.000000, 90.000000)"><polygon id="Path-2" points="16.3196111 56.5912852 0 56.5912852 0 0 40.9324325 0 40.9324325 15.3561882 16.5243768 15.3561882 16.5243768 21.3239676 40.9324325 21.3239676 40.9324325 35.2762872 16.5243768 35.2762872"/><polygon id="Rectangle-13" points="45.2460811 0 65.7122974 0 65.7122974 56.5912852 45.2460811 56.5912852"/><polygon id="Combined-Shape" points="197.49028 19.774746 216.557018 19.774746 216.557018 0 233 0 233 56.5912852 216.557018 56.5912852 216.557018 35.36453 197.49028 35.36453 197.49028 56.5912852 181.047297 56.5912852 181.047297 0 197.49028 0"/><polygon id="Combined-Shape" points="106.029212 25.6262424 106.029212 0 122.387973 0 122.387973 56.5912852 106.802162 56.5912852 105.763108 56.5912852 87.0601351 28.2956425 86.7940317 56.5912852 70.4352703 56.5912852 70.4352703 0 86.7940317 0 105.763108 25.6262424"/><path d="M177.93189,16.4997666 L164.972764,22.7164656 C162.914015,18.1478232 158.449903,14.9832535 153.274533,14.9832535 C146.144388,14.9832535 140.364263,20.9898542 140.364263,28.3993717 C140.364263,35.808889 146.144388,41.8154897 153.274533,41.8154897 C158.292628,41.8154897 162.642035,38.8403354 164.77845,34.4948479 L177.839033,40.2993958 C173.493364,49.9253025 164.08315,56.5912852 153.174715,56.5912852 C138.136681,56.5912852 125.945946,43.9228945 125.945946,28.2956425 C125.945946,12.6683907 138.136681,0 153.174715,0 C164.161501,0 173.628468,6.76208627 177.93189,16.4997666 Z" id="Combined-Shape"/></g></g></g></svg>
